<?xml version="1.0" encoding="UTF-8"?>
<svg xmlns="http://www.w3.org/2000/svg" version="1.1" xmlns:xlink="http://www.w3.org/1999/xlink" viewBox="0 0 350.9 277.2">
  <defs>
    <style>
      .cls-1 {
        fill: url(#linear-gradient-2);
      }

      .cls-2 {
        fill: #fff;
      }

      .cls-3 {
        stroke: url(#linear-gradient-5);
        stroke-width: 19px;
      }

      .cls-3, .cls-4, .cls-5 {
        fill: none;
        stroke-linecap: round;
        stroke-linejoin: round;
      }

      .cls-6 {
        fill: url(#linear-gradient-3);
      }

      .cls-4 {
        stroke: url(#linear-gradient-6);
        stroke-width: 21px;
      }

      .cls-4, .cls-7 {
        display: none;
      }

      .cls-5 {
        stroke: url(#linear-gradient-4);
        stroke-width: 17px;
      }

      .cls-8 {
        fill: url(#linear-gradient);
      }
    </style>
    <linearGradient id="linear-gradient" x1="71" y1="9.5" x2="244.7" y2="9.5" gradientUnits="userSpaceOnUse">
      <stop offset="0" stop-color="#006ab2"/>
      <stop offset="1" stop-color="#0b1429"/>
    </linearGradient>
    <linearGradient id="linear-gradient-2" x1="98.9" y1="43.4" x2="216.2" y2="43.4" xlink:href="#linear-gradient"/>
    <linearGradient id="linear-gradient-3" x1="3.2" y1="187.7" x2="348.7" y2="187.7" gradientUnits="userSpaceOnUse">
      <stop offset="0" stop-color="#0065b2"/>
      <stop offset="1" stop-color="#0e3354"/>
    </linearGradient>
    <linearGradient id="linear-gradient-4" x1="99.4" y1="45.9" x2="212.9" y2="45.9" xlink:href="#linear-gradient-3"/>
    <linearGradient id="linear-gradient-5" x1="69.9" y1="11.2" x2="242.3" y2="11.2" xlink:href="#linear-gradient-3"/>
    <linearGradient id="linear-gradient-6" x1="41" y1="-23.6" x2="271.2" y2="-23.6" xlink:href="#linear-gradient-3"/>
  </defs>
  <!-- Generator: Adobe Illustrator 28.6.0, SVG Export Plug-In . SVG Version: 1.2.0 Build 709)  -->
  <g>
    <g id="Layer_2">
      <g id="_ëîé_2">
        <g>
          <g class="cls-7">
            <path class="cls-8" d="M233.9,36.5c-2.8,0-5.6-1.1-7.8-3.3-18-18.4-42.2-28.7-68-29s-50.2,9.5-68.6,27.5c-4.3,4.2-11.2,4.2-15.4,0s-4.1-11.2.2-15.4c22.6-22.1,52.4-34,84-33.7,31.6.3,61.2,13,83.3,35.5,4.2,4.3,4.1,11.2-.2,15.4-2,2.1-4.8,3.1-7.5,3.1h0Z"/>
            <path class="cls-1" d="M205.3,64.5c-2.8,0-5.6-1.1-7.8-3.3-10.6-10.8-24.7-16.8-39.9-17-15.1-.2-29.4,5.6-40.2,16.1-4.3,4.2-11.2,4.1-15.4-.2-4.2-4.3-4.1-11.2.2-15.4,14.9-14.6,34.7-22.6,55.7-22.3s40.5,8.6,55.2,23.5c4.2,4.3,4.1,11.2-.2,15.4-2.1,2.1-4.9,3.1-7.6,3.2h0Z"/>
          </g>
          <path class="cls-6" d="M41.2,98.3c-21,0-38,17-38,38v102.8c0,21,17.1,38,38,38h221.1c21,0,38-17.1,38-38v-12.5c0-.9,1-1.5,1.8-.9l28.6,21.9c7.4,5.7,18.1.4,18.1-8.9v-102.2c0-9.4-10.7-14.6-18.1-8.9l-28.6,21.9c-.7.6-1.8,0-1.8-.9v-12.4c0-21-17.1-38-38-38H41.2Z"/>
          <g>
            <path class="cls-2" d="M94.6,227.6v18.4h-45.7v-68.4h20.2v50.1h25.5Z"/>
            <path class="cls-2" d="M126,177.5v68.5h-20.2v-68.5h20.2Z"/>
            <path class="cls-2" d="M206.1,177.5l-22.9,68.5h-25l-23-68.5h21.9l13.5,48.8,13.5-48.8h21.9Z"/>
            <path class="cls-2" d="M261.9,229.3v16.6h-46.6v-68.4h45.6v16.7h-25.3v9.3h22.2v15.8h-22.2v10h26.3Z"/>
          </g>
          <line class="cls-5" x1="107.9" y1="45.9" x2="204.4" y2="45.9"/>
          <line class="cls-3" x1="79.4" y1="11.2" x2="232.8" y2="11.2"/>
          <line class="cls-4" x1="51.5" y1="-23.6" x2="260.7" y2="-23.6"/>
        </g>
      </g>
      <g>
        <path class="cls-2" d="M60,121.5h6.2v24.8h-4.2v-19.2l.2,1.1-4.7,15.4h-4.2l-4.7-15,.2-1.4v19.2h-4.2v-24.8h6.2l4.7,16.7,4.5-16.8Z"/>
        <path class="cls-2" d="M72.9,121.5h4.7v24.8h-4.7v-24.8ZM75.7,136.6l9.9-15.1h5.9l-15.2,21.2-.6-6.1ZM79.9,133.8l4-2.5,8.7,15.1h-5.5l-7.2-12.6Z"/>
        <path class="cls-2" d="M99.9,146.2c-1.1-.2-2.2-.6-3.2-1-1-.5-1.9-1-2.7-1.7l2.2-3.9c1,.8,2.1,1.4,3.3,1.8,1.2.4,2.5.6,3.9.6s2.7-.3,3.5-.8,1.3-1.2,1.3-2.2h0c0-.7-.2-1.2-.6-1.6-.4-.4-.9-.7-1.5-.9s-1.4-.3-2.3-.5h-.6c-1.7-.4-3-.7-4.1-1.1s-2-1.1-2.8-2.1-1.1-2.4-1.1-4.2h0c0-1.6.4-3,1.1-4.1s1.8-2,3.1-2.6c1.4-.6,3-.9,4.9-.9s1.8.1,2.7.3c.9.2,1.8.5,2.7.9.9.4,1.7.9,2.5,1.4l-2,4c-1-.7-2-1.2-3-1.5-1-.4-2-.5-3-.5s-2.5.2-3.3.7-1.2,1.1-1.2,2h0c0,.7.2,1.3.6,1.7s.9.7,1.5.9,1.4.4,2.5.6h.6c1.6.3,2.9.7,3.9,1.1,1.1.4,1.9,1.1,2.6,2.1s1.1,2.3,1.1,4h0c0,1.6-.4,2.9-1.1,4.1-.7,1.1-1.8,2-3.2,2.6-1.4.6-3.1.9-5.1.9-.9.2-2.1,0-3.2-.1Z"/>
        <path class="cls-2" d="M115,121.5h18.2v4.5h-18.2v-4.5ZM121.7,123.5h4.7v22.8h-4.7s0-22.8,0-22.8Z"/>
        <path class="cls-2" d="M137.2,121.5h4.7v24.8h-4.7v-24.8ZM139,131.8h8.6c.5,0,.9-.1,1.3-.4.4-.2.6-.6.8-1s.3-1,.3-1.5-.1-1.1-.3-1.5-.5-.8-.8-1c-.4-.2-.8-.4-1.3-.4h-8.6v-4.5h9c1.4,0,2.6.3,3.6.9,1,.6,1.8,1.5,2.4,2.6.6,1.1.9,2.4.9,3.9s-.3,2.8-.9,3.9c-.6,1.1-1.4,2-2.4,2.6s-2.2.9-3.6.9h-9v-4.5ZM144.2,135.6l5-.8,6.7,11.5h-5.7l-6-10.7Z"/>
        <path class="cls-2" d="M161.2,121.5h4.7v24.8h-4.7v-24.8ZM162.9,121.5h14.9v4.5h-14.9v-4.5ZM162.9,131.7h13v4.5h-13v-4.5ZM162.9,141.8h14.9v4.5h-14.9v-4.5Z"/>
        <path class="cls-2" d="M190.4,121.5h3l9.5,24.8h-5l-5.9-16.9-5.9,16.9h-5l9.3-24.8ZM185.5,137.8h13v4.5h-13v-4.5Z"/>
        <path class="cls-2" d="M222.8,121.5h6.2v24.8h-4.2v-19.2l.2,1.1-4.7,15.4h-4.1l-4.7-15,.2-1.4v19.2h-4.2v-24.8h6.2l4.7,16.7,4.4-16.8Z"/>
      </g>
      <circle class="cls-2" cx="258.4" cy="132.5" r="12"/>
    </g>
  </g>
</svg>