<?xml version="1.0" encoding="utf-8"?>
<!-- Generator: Adobe Illustrator 27.1.0, SVG Export Plug-In . SVG Version: 6.00 Build 0)  -->
<svg version="1.1" id="Layer_2_00000042710431026414549620000002580721475343110281_"
	 xmlns="http://www.w3.org/2000/svg" xmlns:xlink="http://www.w3.org/1999/xlink" x="0px" y="0px" viewBox="0 0 369.4 295.3"
	 style="enable-background:new 0 0 369.4 295.3;" xml:space="preserve">
<style type="text/css">
	.st0{fill:#0000FF;}
	.st1{fill:#FFFFFF;}
</style>
<g id="_ëîé_2">
	<g>
		<g>
			<g>
				<path class="st0" d="M238.6,54.6c-2.8,0-5.6-1.1-7.8-3.3c-18-18.4-42.2-28.7-68-29s-50.2,9.5-68.6,27.5C89.9,54,83,54,78.8,49.7
					S74.7,38.5,79,34.3c22.6-22.1,52.4-34,84-33.7c31.6,0.3,61.2,13,83.3,35.5c4.2,4.3,4.1,11.2-0.2,15.4
					C244.1,53.6,241.3,54.6,238.6,54.6L238.6,54.6z"/>
			</g>
			<g>
				<path class="st0" d="M210,82.6c-2.8,0-5.6-1.1-7.8-3.3c-10.6-10.8-24.7-16.8-39.9-17c-15.1-0.2-29.4,5.6-40.2,16.1
					c-4.3,4.2-11.2,4.1-15.4-0.2c-4.2-4.3-4.1-11.2,0.2-15.4c14.9-14.6,34.7-22.6,55.7-22.3s40.5,8.6,55.2,23.5
					c4.2,4.3,4.1,11.2-0.2,15.4C215.5,81.5,212.7,82.5,210,82.6L210,82.6z"/>
			</g>
		</g>
		<g>
			<path class="st0" d="M40.5,104.5C18.1,104.5,0,122.6,0,145v109.7c0,22.4,18.2,40.5,40.5,40.5h235.8c22.4,0,40.5-18.2,40.5-40.5
				v-13.3c0-1,1.1-1.6,1.9-1l30.5,23.4c7.9,6.1,19.3,0.4,19.3-9.5v-109c0-10-11.4-15.6-19.3-9.5l-30.5,23.4c-0.8,0.6-1.9,0-1.9-1
				V145c0-22.4-18.2-40.5-40.5-40.5H40.5L40.5,104.5z"/>
		</g>
		<g>
			<g>
				<path class="st1" d="M97.5,242.4V262H48.7v-73h21.6v53.4H97.5L97.5,242.4z"/>
			</g>
			<g>
				<path class="st1" d="M131,189v73.1h-21.6V189H131z"/>
			</g>
			<g>
				<path class="st1" d="M216.4,189L192,262.1h-26.7L140.8,189h23.4l14.4,52.1L193,189H216.4L216.4,189z"/>
			</g>
			<g>
				<path class="st1" d="M275.9,244.3V262h-49.7v-73h48.6v17.8h-27v9.9h23.7v16.9h-23.7v10.7L275.9,244.3L275.9,244.3z"/>
			</g>
		</g>
	</g>
</g>
<g>
	<path class="st1" d="M64.7,139.6h6.2v24.8h-4.2v-19.2l0.2,1.1l-4.7,15.4H58l-4.7-15l0.2-1.4v19.2h-4.2v-24.8h6.2l4.7,16.7
		L64.7,139.6z"/>
	<path class="st1" d="M77.6,139.6h4.7v24.8h-4.7V139.6z M80.4,154.7l9.9-15.1h5.9L81,160.8L80.4,154.7z M84.6,151.9l4-2.5l8.7,15.1
		h-5.5L84.6,151.9z"/>
	<path class="st1" d="M104.6,164.3c-1.1-0.2-2.2-0.6-3.2-1c-1-0.5-1.9-1-2.7-1.7l2.2-3.9c1,0.8,2.1,1.4,3.3,1.8
		c1.2,0.4,2.5,0.6,3.9,0.6c1.5,0,2.7-0.3,3.5-0.8s1.3-1.2,1.3-2.2l0,0c0-0.7-0.2-1.2-0.6-1.6c-0.4-0.4-0.9-0.7-1.5-0.9
		s-1.4-0.3-2.3-0.5h-0.1h-0.1l-0.4-0.1c-1.7-0.3-3-0.6-4.1-1s-2-1.1-2.8-2.1s-1.1-2.4-1.1-4.2l0,0c0-1.6,0.4-3,1.1-4.1
		s1.8-2,3.1-2.6c1.4-0.6,3-0.9,4.9-0.9c0.9,0,1.8,0.1,2.7,0.3c0.9,0.2,1.8,0.5,2.7,0.9c0.9,0.4,1.7,0.9,2.5,1.4l-2,4
		c-1-0.7-2-1.2-3-1.5c-1-0.4-2-0.5-3-0.5c-1.4,0-2.5,0.2-3.3,0.7s-1.2,1.1-1.2,2l0,0c0,0.7,0.2,1.3,0.6,1.7s0.9,0.7,1.5,0.9
		s1.4,0.4,2.5,0.6h0.1h0.1c0.1,0,0.1,0,0.2,0s0.1,0,0.2,0c1.6,0.3,2.9,0.7,3.9,1.1c1.1,0.4,1.9,1.1,2.6,2.1s1.1,2.3,1.1,4l0,0
		c0,1.6-0.4,2.9-1.1,4.1c-0.7,1.1-1.8,2-3.2,2.6c-1.4,0.6-3.1,0.9-5.1,0.9C106.9,164.6,105.7,164.5,104.6,164.3z"/>
	<path class="st1" d="M119.7,139.6h18.2v4.5h-18.2V139.6z M126.4,141.6h4.7v22.8h-4.7C126.4,164.4,126.4,141.6,126.4,141.6z"/>
	<path class="st1" d="M141.9,139.6h4.7v24.8h-4.7V139.6z M143.7,149.9h8.6c0.5,0,0.9-0.1,1.3-0.4c0.4-0.2,0.6-0.6,0.8-1
		s0.3-1,0.3-1.5c0-0.6-0.1-1.1-0.3-1.5s-0.5-0.8-0.8-1c-0.4-0.2-0.8-0.4-1.3-0.4h-8.6v-4.5h9c1.4,0,2.6,0.3,3.6,0.9
		c1,0.6,1.8,1.5,2.4,2.6c0.6,1.1,0.9,2.4,0.9,3.9s-0.3,2.8-0.9,3.9c-0.6,1.1-1.4,2-2.4,2.6s-2.2,0.9-3.6,0.9h-9V149.9z M148.9,153.7
		l5-0.8l6.7,11.5h-5.7L148.9,153.7z"/>
	<path class="st1" d="M165.9,139.6h4.7v24.8h-4.7V139.6z M167.6,139.6h14.9v4.5h-14.9V139.6z M167.6,149.8h13v4.5h-13V149.8z
		 M167.6,159.9h14.9v4.5h-14.9V159.9z"/>
	<path class="st1" d="M195.1,139.6h3l9.5,24.8h-5l-5.9-16.9l-5.9,16.9h-5L195.1,139.6z M190.2,155.9h13v4.5h-13V155.9z"/>
	<path class="st1" d="M227.5,139.6h6.2v24.8h-4.2v-19.2l0.2,1.1l-4.7,15.4h-4.1l-4.7-15l0.2-1.4v19.2h-4.2v-24.8h6.2l4.7,16.7
		L227.5,139.6z"/>
</g>
<g>
	<ellipse class="st1" cx="263.1" cy="150.6" rx="12" ry="12"/>
</g>
</svg>
